# xmcd
#
# Track frame offsets:
#	150
#	16890
#	34281
#	50546
#	69904
#	85978
#	100572
#	117306
#	134596
#	150802
#	170230
#	186285
#
# Disc length: 2678
#
# Revision: 1
# Processed by: cddbd v1.5.2PL0 Copyright (c) Steve Scherf et al.
# Submitted via: kJams Lite (development) 1.0patch49.47
#
DISCID=990a740c
DTITLE=Wilson, Gretchen - CB20573
DYEAR=2000
DGENRE=Country
TTITLE0=Wilson, Gretchen - All Jacked Up (Guide Vocal)
TTITLE1=Wilson, Gretchen - Redneck Woman (Guide Vocal)
TTITLE2=Wilson, Gretchen - Here For The Party (Guide Vocal)
TTITLE3=Wilson, Gretchen - When I Think About Cheatin' (Guide Vocal)
TTITLE4=Wilson, Gretchen - Homewrecker (Guide Vocal)
TTITLE5=Wilson, Gretchen - When It Rains (Guide Vocal)
TTITLE6=Wilson, Gretchen - All Jacked Up
TTITLE7=Wilson, Gretchen - Redneck Woman
TTITLE8=Wilson, Gretchen - Here For The Party
TTITLE9=Wilson, Gretchen - When I Think About Cheatin'
TTITLE10=Wilson, Gretchen - Homewrecker
TTITLE11=Wilson, Gretchen - When It Rains
EXTD=
EXTT0=
EXTT1=
EXTT2=
EXTT3=
EXTT4=
EXTT5=
EXTT6=
EXTT7=
EXTT8=
EXTT9=
EXTT10=
EXTT11=
PLAYORDER=
